<svg xmlns="http://www.w3.org/2000/svg" viewBox="0 0 661 800" enable-background="new 0 0 661 800"><style type="text/css">.st0{fill:#E7E3DA;} .st1{fill:#A26A30;} .st2{fill:#D8D3CC;} .st3{fill:#2D2828;} .st4{opacity:0.31;fill:#615050;enable-background:new ;} .st5{opacity:0.48;fill:#615050;enable-background:new ;} .st6{fill:#261E1F;} .st7{fill:#48474C;} .st8{fill:#5B5B60;} .st9{fill:#6F6D79;} .st10{fill:#575762;} .st11{fill:#83818D;} .st12{fill:#7B7B87;} .st13{fill:#C6BFB2;} .st14{fill:#B3A49F;} .st15{opacity:0.78;} .st16{fill:#FBFCFE;} .st17{fill:#FAFAFB;} .st18{fill:#A4959A;} .st19{fill:#907A72;} .st20{fill:#C3AAA6;} .st21{fill:#D8CAC5;} .st22{fill:#EAE5E7;} .st23{fill:#595251;} .st24{fill:#746466;} .st25{fill:#86817E;} .st26{fill:#DDAA6F;} .st27{fill:#725033;} .st28{fill:#1C181A;} .st29{fill:#8C7675;} .st30{fill:#322B2B;} .st31{opacity:0.65;fill:#5F5354;enable-background:new ;} .st32{fill:#5F5354;} .st33{fill:#E0B47B;} .st34{fill:#27221C;} .st35{fill:#413228;} .st36{fill:#221E23;} .st37{fill:#896E50;} .st38{fill:#43373B;} .st39{fill:#F7FAF9;} .st40{opacity:0.56;fill:#B0A79D;enable-background:new ;} .st41{fill:#E4DEDC;} .st42{fill:#3D3C42;} .st43{fill:#DCB17D;} .st44{fill:#AB875E;} .st45{fill:#593E37;} .st46{fill:#B5A59C;} .st47{fill:#CDC5CB;} .st48{fill:#8A735E;} .st49{fill:#644438;} .st50{fill:#895D69;} .st51{fill:#614038;} .st52{fill:#937144;} .st53{fill:#C18F53;} .st54{fill:#76502D;} .st55{fill:#37342E;} .st56{fill:#916030;} .st57{fill:#895D6B;} .st58{fill:#AA7941;} .st59{fill:#EDC99E;} .st60{fill:#EDD3B0;} .st61{opacity:0.83;fill:#FDFEFF;enable-background:new ;} .st62{fill:#B0844D;} .st63{fill:#CA9D67;} .st64{fill:#AE895D;} .st65{fill:#191311;} .st66{fill:#88592E;} .st67{fill:#976D41;} .st68{fill:#C4919E;} .st69{fill:#A66F78;} .st70{fill:#DEA0AF;} .st71{fill:#55312F;} .st72{fill:#640D0D;}</style><path class="st0" d="M218.2 543.2l-156.6-149.5v-211.3l156.6-149.4h221.8l156.7 149.4v211.3l-156.7 149.5zM149.5 95.8"/><path class="st1" d="M224.6 33l-78.4 72.8 157.1-72.8zM434.4 33l83.6 72.8-166.9-72.8z"/><path class="st2" d="M467.6 309.7l-86.8-39.9v-.5h-103.8v.5l-86.9 39.9-65.9 122.9v51.3l76.9 43.5 51.4-16.6 59.5-49.1 28.9 1.3 64.4 47.8 51.3 16.6 77-43.5v-51.3z"/><path class="st3" d="M363.1 318.6h-69.5l-33.4 26.9 47.2 31.1h41.2l47.5-31.1z"/><path class="st4" d="M307.4 376.6l-47.2-31.1-3.4 52.8-51.3 62.9 8.9 23.3 40.6 26.3 57-49.1 12.5-.5v-84.6z"/><path class="st5" d="M349.1 376.6l47-31.1 5.9 52.8 51.3 62.9-7.4 26.6-41.9 23-59.5-49.1-12.8-.5v-84.6z"/><path class="st6" d="M324.5 376.6h7.2v84.3h-7.2z"/><path class="st7" d="M307.4 376.6l-47.2-31.1 35.7 40.8 28.6 12v-21.7z"/><path class="st8" d="M346.8 376.6h-15.1v21.7l29.9-11.2 34.5-41.6z"/><path class="st9" d="M361.6 387.1l-29.9 11.2v62.9l12.8.5 39.8 33-4.8-96.4z"/><path class="st10" d="M297.5 387.1l27 11.2v62.9l-13.8.5-36.2 30.7 4.3-94.1z"/><path class="st11" d="M396.1 345.5l-34.5 41.6 17.9 11.2h22.5z"/><path class="st12" d="M260.2 345.5l37 41.6-17.9 11.2h-22.7z"/><path class="st13" d="M516.2 428l-51.4-89.4-68.7 6.9 5.9 52.8 51.3 62.9-4.6 23.5-44.7 26.1 52.6 16.6 77-43.5z"/><path class="st14" d="M396.1 345.5l5.9 52.8 51.3 62.9-9.7 26.6-39.6 23 35.3 11 54.9-31.5 2.6-36.8-49.1-75.1z"/><g class="st15"><path class="st13" d="M141.6 428l51.4-89.4 68.7 6.9-5.9 52.8-51.6 62.9 7.9 26.3 41.7 23.3-52.7 16.6-76.9-43.5z"/><path class="st14" d="M261.7 345.5l-3.6 52.8-51.3 62.9 7.6 22 41.9 27.6-37.8 11-54.9-31.5-2.6-36.8 49.1-75.1z"/></g><path class="st16" d="M467.6 309.7l-2.8 28.9 52.9 94.5 15.9 50.8v-51.3z"/><path class="st17" d="M190.1 309.7l-65.9 122.9v51.3l17.4-55.9 51.4-89.4z"/><path class="st18" d="M453.3 318.6l-73.8-37.3-95.3-.7-77.7 38-13.5 20 68.7 6.9 31.9-26.9h69.5l33 26.9 68.7-6.9z"/><path class="st19" d="M331.7 296.9l-47.5-16.3 27.3 38h27.4z"/><path class="st20" d="M284.2 280.6l-77.7 38-15.8 22.3 71 4.6 31.9-26.9h17.9z"/><path class="st21" d="M381.8 269.3h-50.1v11.3l47.8.7 73.8 37.3 11.5 20 2.8-28.9z"/><path class="st22" d="M278.6 269.3l-88.5 40.4.6 31.2 17.1-22.3 76.4-38h47.5v-11.3z"/><path class="st23" d="M344.5 461.7h-32.5l-58.2 49.1 11.2 15 127.5-.7 11.5-14.3z"/><path class="st3" d="M347 461.7l-19.1-2.3-18.4 2.3-55.7 49.1 64.9-33.5h20.2l65.1 33.5z"/><path class="st24" d="M338.9 477.3h-20.2l-29.2 15.1 17.2 29.4h44.2l19.9-28.1z"/><path class="st25" d="M387.9 521.8h-117.5l-16.6-11 11.2 15 63.1 6.4 64.4-7.1 11.5-14.3z"/><path class="st26" d="M484.2 79.7l-125.4-46.7h-53.2l-127.7 46.7-28.9 62.1h367.2z"/><path class="st27" d="M484.2 79.7l32 62.1 80.5 45.2z"/><path class="st28" d="M302.3 358.5l-8.2-7.7v-10.7l8.2-7.7h11.5l8.2 7.7v10.7l-8.2 7.7z"/><path class="st29" d="M313.8 327.8h-11.5l-8.2 7.7v5.1l8.2-7.7h11.5l8.2 7.7v-5.1z"/><path class="st30" d="M302.3 352.9l-8.2-7.4v5.1l8.2 7.4h11.5l8.2-7.4v-5.1l-8.2 7.4z"/><path class="st28" d="M340.6 358.5l-8.1-7.7v-10.7l8.1-7.7h11.5l8.2 7.7v10.7l-8.2 7.7z"/><path class="st29" d="M352.1 327.8h-11.5l-8.1 7.7v5.1l8.1-7.7h11.5l8.2 7.7v-5.1z"/><path class="st30" d="M340.6 352.9l-8.1-7.4v5.1l8.1 7.4h11.5l8.2-7.4v-5.1l-8.2 7.4z"/><path class="st31" d="M396.1 345.5l-33-26.9h-69.5l-31.9 26.9h32.4v-10l8.2-7.7h11.5l8.2 7.7 5.1 11.2 5.4-11.2 8.1-7.7h11.5l8.2 7.7v10z"/><path class="st32" d="M359.3 310.7l-31.4-7.2-30.7 6.2-35.5 35.8 31.9-26.9h69.5l33 26.9z"/><path class="st33" d="M516.2 141.8h-367.2l-83.3 45.2-4.1 206.7 42.7 39.9 60-135.2 114.3-29.1h103.2l113.2 29.1 60 135.2 41.7-39.9v-206.7z"/><path class="st34" d="M481.2 184.2l-32.5-4.3-30.6 22.2-18.4 6.9-28.9-20.2-6.9 35.5 6.9 19.5 47.3 10.4-2.3-31.1 31.4-21h44.7l33.5 22.2-10.7-21.4z"/><path class="st35" d="M181.5 184.2l32.7-4.3 30.6 22.2 18.2 6.9 29.1-20.2 6.6 35.5-6.6 19.5-47.3 10.4 2.3-31.1-31.4-17.4-44.7-3.6-33.5 22.2 10.7-21.4z"/><path class="st36" d="M447.2 271.6l-29.1-19.7-2.3-30.1 31.4-19.7h44.7l31.4 19.7v27.8l-29.1 19.7z"/><path class="st37" d="M547.6 293.8l-4.6-50-19.7-21.5-2.3 28.4-27.3 18.6-45 .8 48.1 18.1 19.9 60.6 23.8 24.8-6.9-40.9z"/><path class="st38" d="M419.3 251.9v-14.8l-8.4 17.1 38.8 15.9z"/><path class="st39" d="M515.4 344.7l-18.6-56.5-49.1-18.9-26.1-15.1-50.8-10.4-41.4 8.4.8 17.1h51.6l85.8 40.4 66 122.9v21.4l27-26v-31.2z"/><path class="st40" d="M554.8 432.1l-49.3-63.7-32.2-66.9-92.5-33.5 86.8 40.1 65.7 123.2v21.5z"/><path class="st41" d="M515.4 344.7l45.2 83.3v-31.2z"/><path class="st42" d="M523.3 221.8l-2.3 28.9-27.3 18.6-45 .8 48.1 18.1 7.4 21.5 12.8-38.1 11.7-14.6z"/><path class="st43" d="M543 243.8l4.6 50-14 38.9 6.9 40.9 20.1 23.2v31.2l23.6-22.2 5.3-67.2 7.2-101.7v-49.9z"/><path class="st44" d="M584.2 387.1l-8 11.2-35.7-24.7 20.1 23.2v31.2l36.1-34.3v-149.9z"/><path class="st45" d="M456.4 263.2l-19.2-17.9v-25.3l19.2-17.9h26.8l18.9 17.9v25.3l-18.9 17.9z"/><path class="st36" d="M459.2 250.9l-15.3-14.3v-20.2l15.3-14.3h21.5l15.3 14.3v20.2l-15.3 14.3z"/><path class="st46" d="M478.9 227.4l-3.6-3.3v-4.6l3.6-3.1h4.8l3.4 3.1v4.6l-3.4 3.3zM466.4 230.5l-1.8-1.8v-2.6l1.8-1.8h2.8l1.8 1.8v2.6l-1.8 1.8z"/><path class="st47" d="M496.8 288.2l-49.1-18.9-30.9-17.4 98.6 92.8z"/><path class="st48" d="M496 196.2l-48.8 5.9h44.7l31.4 22.2z"/><path class="st49" d="M419.3 251.9l-2.5-21.4-20.7 18.4 53.6 21.2z"/><path class="st50" d="M523.3 224.3l-2.3 26.4-27.3 18.6-44 .8 46.3 3.8 29.4-22z"/><path class="st51" d="M422.9 202.1l-12 14.3v19.2l6.1-2.8-1.2-9.7z"/><path class="st52" d="M535.6 198.8l-24-30.9-67.2-21.5-36.3 17.9-8.4 44.7 23.2-6.9 25.8-22.2 32.5 4.3 33.5 18.7 8.6 21.4 19.7 19.5z"/><path class="st53" d="M516.2 141.8h-76.2l71.6 26.1 22 34.2 9.4 41.7 53.7-57.3z"/><path class="st36" d="M211.9 271.6l29.1-19.7 2.3-30.1-31.4-19.7h-44.8l-31.4 19.7v27.8l29.1 19.7z"/><path class="st54" d="M111.4 293.8l4.4-50 19.9-21.5 2.3 28.4 27.4 18.6 44.9.8-48 18.1-20.2 60.6-23.5 24.8 6.9-40.9z"/><path class="st38" d="M239.7 251.9v-14.8l8.4 17.1-38.8 15.9z"/><path class="st39" d="M143.6 344.7l18.7-56.5 49.1-18.9 26-15.1 50.9-10.4 41.4 8.4-.8 17.1h-51.9l-85.8 40.4-65.7 122.9v21.4l-27.1-26v-31.2z"/><path class="st40" d="M104.3 432.1l49.3-63.7 32.2-66.9 92.5-33.5-86.9 40.1-65.6 123.2v21.5z"/><path class="st41" d="M143.6 344.7l-45.2 83.3v-31.2z"/><path class="st55" d="M135.7 221.8l2.3 28.9 27.4 18.6 44.9.8-48 18.1-7.4 21.5-12.8-38.1-12-14.6z"/><path class="st43" d="M115.8 243.8l-4.4 50 14.1 38.9-6.9 40.9-20.2 23.2v31.2l-23.5-22.2-5.4-67.2-7.1-101.7v-49.9z"/><path class="st56" d="M74.9 387.1l7.9 11.2 35.8-24.7-20.2 23.2v31.2l-36-34.3v-149.9z"/><path class="st45" d="M202.7 263.2l19.1-17.9v-25.3l-19.1-17.9h-26.9l-18.9 17.9v25.3l18.9 17.9z"/><path class="st36" d="M199.9 250.9l15.3-14.3v-20.2l-15.3-14.3h-21.5l-15.3 14.3v20.2l15.3 14.3z"/><path class="st46" d="M180.2 227.4l3.3-3.3v-4.6l-3.3-3.1h-4.9l-3.6 3.1v4.6l3.6 3.3zM192.7 230.5l1.8-1.8v-2.6l-1.8-1.8h-2.8l-1.8 1.8v2.6l1.8 1.8z"/><path class="st47" d="M162.3 288.2l49.1-18.9 30.9-17.4-98.7 92.8z"/><path class="st48" d="M163.1 196.2l48.8 5.9h-44.8l-31.4 22.2z"/><path class="st49" d="M239.7 251.9l2.6-21.4 20.4 18.4-53.4 21.2z"/><path class="st57" d="M135.7 224.3l2.3 26.4 27.4 18.6 43.9.8-46.2 3.8-29.4-22z"/><path class="st51" d="M236.1 202.1l12 14.3v19.2l-6.1-2.8 1.3-9.7z"/><path class="st58" d="M123.5 198.8l23.7-30.9 67.5-21.5 36.3 17.9 10.7 44.7-25.6-6.9-25.8-22.2-28.8 4.3-31.7 18.7-14.1 21.4-19.9 19.5z"/><path class="st53" d="M142.9 141.8h76.1l-71.8 26.1-21.7 34.2-9.7 41.7-53.4-57.3z"/><path class="st59" d="M440 141.8h-58.2l-11 47 28.9 20.2 11.2-46 36.3-16.6z"/><path class="st60" d="M222.8 141.8h56l13.3 47-28.9 20.2-11.2-46-36.3-16.6z"/><path class="st61" d="M357.5 33h-58l-20.9 107.5 32.9 128.8h40.1l30.2-128.8z"/><path class="st62" d="M440 141.8l7.2 4.6 64.4 21.5 4.6-26.1z"/><path class="st63" d="M149 141.8l-1.8 26.1 65.7-21 9.9-5.1z"/><path class="st44" d="M568.6 297.9l-8 89.7 15.6 10.7z"/><path class="st56" d="M91.3 297.9l7.9 89.7-15.6 10.7z"/><path class="st64" d="M644.7 61.3l-56.2-49.3h-104.8l-49.3 21 162.3 153.5-28.1-145.6 18.1-15.4 41.7 39.1-23.6 62.9z"/><path class="st65" d="M630.1 64.6l-43.4-39.1-18.1 15.4 21.7 122.1 12.8 5.1 8.9-15.3-7.2-25.3z"/><path class="st66" d="M483.7 12l-49.3 21 49.8 46.7 15.6-43.9 88.7-23.8z"/><path class="st67" d="M568.6 40.9l-13.1 45.7 9.5 41.9 31.7 58z"/><path class="st64" d="M16.4 61.3l56.2-49.3h105l49.1 21-162 153.5 27.8-145.6-18.1-15.4-41.7 39.1 23.6 62.9z"/><path class="st65" d="M31 64.6l43.4-39.1 18.1 15.4-21.7 122.1-12.8 5.1-8.9-15.3 7.2-25.3z"/><path class="st66" d="M177.6 12l49.1 21-49.8 46.7-15.6-43.9-88.7-23.8z"/><path class="st67" d="M92.5 40.9l13.3 45.7-9.7 41.9-31.4 58z"/><path class="st27" d="M65.7 187l83.3-45.2 28.9-62.1z"/><path class="st68" d="M391 499.3c-12-9.7-24-19.2-35.8-28.9.3.3-1.5-1.5-4.1-3.6l-6.4-4.3h-30.2l-33.7 24c-4.1 3.8-8.2 7.4-12 11.2-1.3 1-2.3 2-3.6 3.3l39.3 10.2 33.5-5.9 49.3 3.6 8.7-5.1c-1.7-1.7-3.2-3-5-4.5z"/><path class="st69" d="M355.2 470.4c.3.3-1.5-1.5-4.1-3.6l-6.4-4.3h-30.2l-33.7 24c-3.8 3.6-7.7 7.2-11.5 10.5l12-1 56.7-17.4 37.8 16.4 10.7 1.3c-10.3-8.8-20.8-17.2-31.3-25.9zM326.6 462l1.3 19.6 19.9 19.7z"/><path class="st70" d="M368.8 500.6l-26.4-2.3-37.8 12.7 39.4-5.8 43.4 3.5z"/><path class="st71" d="M355.2 470.4c.3.3-1-.8-2.6-2.3l-8.4-5.9h-29.6l-33.7 24c-3.1 3.1-6.4 5.9-9.5 8.9l2.8-.5 34.2-19.4s23.3-5.9 25.6-5.9l15.3 2.3 23.5 12.8c-6.1-4.5-12-9.1-17.6-14z"/><path class="st6" d="M347 461.7l-19.1-2.3-18.4 2.3-38.1 33.5 45.2-28.4 27.1-.5 28.6 18.2z"/><path class="st72" d="M49.1 762.5l-2.3-2.6v-107.3l26.6-27.1h55.2l22.7 24.8 2.3 2.3v107.3l-24.8 27.6h-57.2l-22.5-25zm34.2-12.8l4.6 4.9h25.3l3.8-4.6v-86.6l-3.8-4.3h-25.5l-4.3 4.3v86.3zM176.1 762.5l-2.3-2.6v-107.3l26.6-27.1h55.2l22.7 24.8 2.3 2.3v107.3l-24.8 27.6h-57.2l-22.5-25zm34.2-12.8l4.6 4.9h25.3l3.8-4.6v-86.6l-3.8-4.3h-25.6l-4.3 4.3v86.3zM415 650.5l2.3 2.3v52.4l-22.5 23.8-2.6 2.6h-43.7v26.6l12.3 7.7v21.5h-59.8v-21.5l11.5-7.7v-103l-11.5-7.7v-21.7h91.7l22.3 24.7zm-34.2 12.8l-4.1-4.3h-28.4v40.1h28.4l4.1-4.3v-31.5zM541.7 650l2.3 2.6v18.1h-36.3v-7.4l-4.3-4.1h-25l-4.3 4.1v23l.8.8h50.1l16.9 18.1 2.3 2.6v52.1l-24.8 27.6h-57.5l-22.2-25.3-2-2.3v-22.5h36.3v12.5l4.6 5.6h24.3l4.9-5.6v-31.4l-.5-.8h-51.4l-18.4-21.7v-43.4l21.7-24 2.6-2.6h57.7l22.2 24zM562.7 625.8h50.3l-10.5 108.6h-29.6l-10.2-108.6zm5.1 122.1h39.3v39.6h-39.3v-39.6z"/></svg>