<!-- <?xml version="1.0" encoding="utf-8"?>
Generator: Adobe Illustrator 22.1.0, SVG Export Plug-In . SVG Version: 6.00 Build 0)  -->
<svg xmlns="http://www.w3.org/2000/svg" xmlns:xlink="http://www.w3.org/1999/xlink" version="1.1" id="Layer_1" x="0px" y="0px" viewBox="0 0 256 256" style="enable-background:new 0 0 256 256;" xml:space="preserve" width="512" height="512">
<style type="text/css">
	.st0{fill:#F9CFCF;}
	.st1{fill:#3762CC;}
	.st2{fill:#F9A7A7;}
	.st3{fill:#E0EBFC;}
	.st4{fill:#4671C6;}
	.st5{fill:#6BDDDD;}
	.st6{fill:#FFEA92;}
	.st7{fill:#A4C9FF;}
	.st8{fill:#EAA97D;}
	.st9{fill:#B9BEFC;}
</style>
<g>
	<g>
		<path class="st3" d="M128,35.58L39.6,111.5v112.135c0,6.893,5.587,12.48,12.48,12.48h151.84c6.893,0,12.48-5.587,12.48-12.48    V111.5L128,35.58z"/>
	</g>
	<g>
		<path class="st1" d="M203.92,238.115H52.08c-7.984,0-14.48-6.496-14.48-14.48V111.5c0-0.583,0.255-1.137,0.697-1.517l88.4-75.92    c0.748-0.644,1.857-0.644,2.605,0l88.4,75.92c0.442,0.38,0.697,0.934,0.697,1.517v112.135    C218.4,231.619,211.904,238.115,203.92,238.115z M41.6,112.419v111.216c0,5.779,4.701,10.48,10.48,10.48h151.84    c5.779,0,10.48-4.701,10.48-10.48V112.419L128,38.216L41.6,112.419z"/>
	</g>
	<g>
		<path class="st4" d="M235.122,141.965c-3.244,1.834-7.033,1.32-9.608-0.891l-93.449-80.256c-2.338-2.008-5.793-2.008-8.131,0    l-93.449,80.256c-1.508,1.295-3.433,2.008-5.42,2.008l0,0c-2.222,0-4.311-0.865-5.884-2.436l-9.765-9.767    c-1.633-1.632-2.519-3.892-2.431-6.199c0.087-2.306,1.142-4.492,2.892-5.996l112.701-96.79c1.508-1.295,3.434-2.008,5.421-2.008    c1.988,0,3.913,0.713,5.421,2.009l112.701,96.79c1.751,1.505,2.805,3.691,2.893,5.997c0.087,2.306-0.799,4.566-2.431,6.198    l-9.759,9.76C236.314,141.149,235.75,141.61,235.122,141.965z"/>
	</g>
	<g>
		<path class="st1" d="M230.91,145.093c-2.402,0-4.771-0.847-6.698-2.502l-93.449-80.257c-1.603-1.376-3.925-1.375-5.525,0    l-93.449,80.256c-1.87,1.606-4.258,2.491-6.723,2.491c-2.756,0-5.348-1.073-7.297-3.021l-9.766-9.768    c-2.025-2.023-3.125-4.826-3.017-7.689c0.108-2.86,1.416-5.571,3.589-7.437l112.7-96.79c1.871-1.606,4.26-2.491,6.725-2.491    s4.854,0.885,6.725,2.491l112.7,96.79c2.173,1.868,3.48,4.579,3.589,7.439c0.108,2.86-0.991,5.662-3.017,7.688l-9.759,9.759    c-0.693,0.693-1.391,1.234-2.132,1.653C234.463,144.636,232.677,145.093,230.91,145.093z M128,57.296    c1.907,0,3.813,0.668,5.368,2.004l93.449,80.256c2.051,1.761,4.924,2.022,7.32,0.667v0c0.417-0.235,0.845-0.571,1.272-0.999    l9.759-9.76c1.24-1.241,1.914-2.956,1.847-4.708c-0.065-1.752-0.866-3.413-2.197-4.557L132.119,23.411    c-1.146-0.984-2.609-1.526-4.119-1.526s-2.973,0.542-4.119,1.526l-112.7,96.79c-1.33,1.143-2.131,2.803-2.196,4.554    c-0.067,1.753,0.605,3.469,1.847,4.708l9.765,9.768c1.194,1.193,2.781,1.85,4.47,1.85c1.51,0,2.972-0.542,4.117-1.525    L122.632,59.3C124.187,57.964,126.094,57.296,128,57.296z"/>
	</g>
	<g>
		<path class="st5" d="M39.6,209.108v14.527c0,6.893,5.588,12.48,12.48,12.48h151.84c6.893,0,12.48-5.587,12.48-12.48v-14.527H39.6z    "/>
	</g>
	<g>
		<path class="st1" d="M203.92,238.115H52.08c-7.984,0-14.48-6.496-14.48-14.48v-14.527c0-1.104,0.896-2,2-2H216.4    c1.104,0,2,0.896,2,2v14.527C218.4,231.619,211.904,238.115,203.92,238.115z M41.6,211.108v12.527    c0,5.779,4.701,10.48,10.48,10.48h151.84c5.779,0,10.48-4.701,10.48-10.48v-12.527H41.6z"/>
	</g>
	<g>
		<circle class="st2" cx="128" cy="86.572" r="41.58"/>
	</g>
	<g>
		<circle class="st6" cx="128" cy="86.572" r="31.5"/>
	</g>
	<g>
		<path class="st4" d="M110.918,88.961h-0.296c-2.907,0-5.263-2.356-5.263-5.263V81.06c0-2.907,2.356-5.263,5.263-5.263h0.296    c2.907,0,5.263,2.356,5.263,5.263v2.637C116.182,86.605,113.825,88.961,110.918,88.961z"/>
	</g>
	<g>
		<path class="st4" d="M145.16,88.961h0.296c2.907,0,5.263-2.356,5.263-5.263V81.06c0-2.907-2.356-5.263-5.263-5.263h-0.296    c-2.907,0-5.263,2.356-5.263,5.263v2.637C139.897,86.605,142.253,88.961,145.16,88.961z"/>
	</g>
	<g>
		<path class="st4" d="M121.275,79.537h-0.296c-2.907,0-5.263-2.356-5.263-5.263v-2.637c0-2.907,2.356-5.263,5.263-5.263h0.296    c2.907,0,5.263,2.356,5.263,5.263v2.637C126.538,77.181,124.182,79.537,121.275,79.537z"/>
	</g>
	<g>
		<path class="st4" d="M134.512,79.537h0.296c2.907,0,5.263-2.356,5.263-5.263v-2.637c0-2.907-2.356-5.263-5.263-5.263h-0.296    c-2.907,0-5.263,2.356-5.263,5.263v2.637C129.249,77.181,131.605,79.537,134.512,79.537z"/>
	</g>
	<g>
		<path class="st4" d="M138.671,89.62c-0.479-0.113-0.812-0.497-0.812-0.936l0,0c0-4.796-4.396-8.683-9.819-8.683l0,0    c-5.423,0-9.819,3.888-9.819,8.683l0,0c0,0.439-0.333,0.823-0.812,0.936c-4.14,0.978-7.189,4.315-7.189,8.284v0.212    c0,4.737,4.343,8.577,9.699,8.577h8.121l0,0h8.121c5.357,0,9.699-3.84,9.699-8.577v-0.212    C145.86,93.935,142.81,90.598,138.671,89.62z"/>
	</g>
	<g>
		<path class="st1" d="M128,130.152c-24.03,0-43.58-19.55-43.58-43.58s19.55-43.58,43.58-43.58s43.58,19.55,43.58,43.58    S152.03,130.152,128,130.152z M128,46.992c-21.824,0-39.58,17.755-39.58,39.58s17.756,39.58,39.58,39.58s39.58-17.755,39.58-39.58    S149.824,46.992,128,46.992z"/>
	</g>
	<g>
		<g>
			<path class="st7" d="M79.9,236.115v-50.7c0-26.565,21.535-48.1,48.1-48.1h0c26.565,0,48.1,21.535,48.1,48.1v50.7H79.9z"/>
		</g>
		<g>
			<path class="st1" d="M176.1,238.115H79.9c-1.104,0-2-0.896-2-2v-50.7c0-27.625,22.475-50.1,50.1-50.1s50.1,22.475,50.1,50.1v50.7     C178.1,237.219,177.204,238.115,176.1,238.115z M81.9,234.115H174.1v-48.7c0-25.42-20.681-46.1-46.1-46.1s-46.1,20.68-46.1,46.1     V234.115z"/>
		</g>
	</g>
</g>
</svg>
