<?xml version="1.0" encoding="utf-8"?>
<!-- Generator: Adobe Illustrator 22.1.0, SVG Export Plug-In . SVG Version: 6.00 Build 0)  -->
<svg xmlns="http://www.w3.org/2000/svg" xmlns:xlink="http://www.w3.org/1999/xlink" version="1.1" id="Layer_1" x="0px" y="0px" viewBox="0 0 256 256" style="enable-background:new 0 0 256 256;" xml:space="preserve" width="512" height="512">
<style type="text/css">
	.st0{fill:#F9CFCF;}
	.st1{fill:#3762CC;}
	.st2{fill:#F9A7A7;}
	.st3{fill:#E0EBFC;}
	.st4{fill:#4671C6;}
	.st5{fill:#6BDDDD;}
	.st6{fill:#FFEA92;}
	.st7{fill:#A4C9FF;}
	.st8{fill:#EAA97D;}
	.st9{fill:#B9BEFC;}
</style>
<g>
	<g>
		<polygon class="st3" points="219.929,8 123.9,104.029 130.971,111.1 234.071,8   "/>
	</g>
	<g>
		<path class="st1" d="M130.972,113.1c-0.512,0-1.023-0.195-1.414-0.586l-7.071-7.07c-0.375-0.375-0.586-0.884-0.586-1.414    s0.211-1.039,0.586-1.414l96.028-96.029C218.89,6.211,219.398,6,219.929,6h14.143c0.809,0,1.538,0.487,1.848,1.234    c0.31,0.748,0.139,1.607-0.434,2.18l-103.1,103.1C131.995,112.904,131.483,113.1,130.972,113.1z M126.729,104.029l4.243,4.242    L229.243,10h-8.486L126.729,104.029z"/>
	</g>
	<g>
		<g>
			<path class="st2" d="M235.384,125.09c-4.275,4.275-8.331,6.683-8.667,6.879c-2.903,1.694-6.649,0.703-8.367-2.214     c-1.714-2.912-0.757-6.642,2.133-8.341c0.231-0.138,11.689-7.079,12.876-16.883c0.641-5.3-1.966-10.92-7.749-16.703     c-2.395-2.395-2.41-6.262-0.035-8.637c2.375-2.375,6.243-2.36,8.637,0.035c8.625,8.625,12.414,17.693,11.263,26.953     C244.475,114.23,239.812,120.661,235.384,125.09z"/>
		</g>
	</g>
	<g>
		<g>
			<path class="st1" d="M223.67,134.793c-2.794,0-5.523-1.441-7.044-4.022c-1.099-1.867-1.409-4.046-0.874-6.137     c0.536-2.094,1.856-3.85,3.718-4.944c0.099-0.059,10.836-6.578,11.904-15.398c0.563-4.659-1.852-9.722-7.178-15.049     c-3.17-3.17-3.186-8.313-0.034-11.466c3.15-3.151,8.294-3.136,11.466,0.035c9.083,9.082,13.064,18.709,11.833,28.614     c-0.875,7.035-4.563,13.978-10.663,20.078c-4.392,4.392-8.603,6.917-9.068,7.19C226.454,134.438,225.054,134.793,223.67,134.793z      M229.863,79.421c-1.044,0-2.083,0.395-2.873,1.184c-1.592,1.593-1.576,4.198,0.034,5.81c6.24,6.24,9.04,12.416,8.32,18.357     c-1.307,10.79-13.328,18.058-13.839,18.361c-0.944,0.556-1.608,1.439-1.879,2.493c-0.271,1.06-0.112,2.166,0.446,3.115     c1.158,1.965,3.683,2.64,5.636,1.501c0.416-0.244,4.221-2.526,8.261-6.566c3.811-3.812,8.557-9.983,9.522-17.744     c1.071-8.617-2.526-17.127-10.692-25.292C231.988,79.828,230.923,79.421,229.863,79.421z"/>
		</g>
	</g>
	<g>
		<path class="st2" d="M87.592,163.136l-27.374-4.599l12.979,68.985h-7.81c-6.214,0-11.252,5.078-11.252,11.342v5.115    c0,1.918,1.542,3.472,3.444,3.472h19.367h3.297h0.927c5.169,0,9.307-4.325,9.119-9.532L87.592,163.136z"/>
	</g>
	<g>
		<path class="st2" d="M222.059,203.888c-0.108-0.306-0.229-0.608-0.372-0.901l-14.164-29.122l-0.059,0.022l-0.048-0.098    l0.024,0.107l-45.767,16.797l42.55,24.511l0.452,2.169l1.91,10.149h-7.81c-6.214,0-11.252,5.078-11.252,11.342v5.114    c0,1.772,1.322,3.217,3.022,3.429l-0.05,0.043h0.472h19.367h3.297h0.927h5.839c2.727,0,4.937-2.211,4.937-4.937V210.62    L222.059,203.888z"/>
	</g>
	<g>
		<path class="st2" d="M220.834,121.802c-15.246-14.87-37.948-17.968-56.164-9.276c-1.05-0.088-2.108-0.147-3.18-0.151h-6.461    l-51.137-12.362V88.859L97.92,76.238L58.103,100.91v11.466L58,163.951c0.067,16.23,13.611,29.44,30.252,29.504l33.852,0.132    l43.243,6.19l18.962,3.955l-0.019-0.175l8.183-0.882l-0.005-0.01c10.484-1.177,20.626-5.648,28.644-13.469    C240.116,170.66,239.992,140.487,220.834,121.802z"/>
	</g>
	<g>
		<path class="st0" d="M176.588,136.376l8.468-27.842c-7.004,0.142-13.973,1.774-20.386,4.912c-1.05-0.091-2.108-0.15-3.18-0.155    h-6.461l-51.137-12.675V89.178l-1.878-4.069l-7.958,26.166c-3.199,10.519,2.735,21.641,13.254,24.84l44.438,13.515    C162.268,152.829,173.389,146.895,176.588,136.376z"/>
	</g>
	<g>
		<path class="st1" d="M220.396,249.451h-29.902c-0.283,0-0.557-0.06-0.806-0.169c-2.414-0.585-4.167-2.765-4.167-5.303v-5.115    c0-7.357,5.944-13.343,13.252-13.343h5.399l-1.725-9.031l-18.861-10.865l-18.588-3.877l-43.043-6.162l-31.196-0.121l1.529,42.382    c0.11,3.081-1.003,5.996-3.137,8.207c-2.113,2.191-4.948,3.397-7.981,3.397H57.579c-3.002,0-5.444-2.454-5.444-5.472v-5.115    c0-7.357,5.944-13.343,13.252-13.343h5.399l-7.96-42.306c-4.377-5.494-6.798-12.312-6.827-19.257l0.104-51.587V100.91    c0-0.692,0.358-1.335,0.946-1.7l39.817-24.673c0.485-0.3,1.074-0.378,1.62-0.218c0.546,0.161,0.998,0.548,1.241,1.063    l5.973,12.621c0.127,0.268,0.192,0.56,0.192,0.855v9.581l49.374,11.937h6.224c0.88,0.003,1.802,0.041,2.808,0.115    c19.394-9.005,42.608-5.066,57.933,9.88c9.707,9.467,15.054,22.03,15.054,35.375c0,13.2-5.248,25.588-14.777,34.881    c-1.005,0.98-2.081,1.941-3.213,2.866l4.192,8.619c0.15,0.31,0.288,0.638,0.419,0.999l3.228,6.634    c0.132,0.272,0.201,0.572,0.201,0.875v31.894C227.334,246.339,224.222,249.451,220.396,249.451z M190.956,245.451h29.44    c1.62,0,2.938-1.317,2.938-2.938v-31.433l-3.074-6.318c-0.033-0.069-0.063-0.14-0.088-0.212c-0.082-0.233-0.174-0.465-0.282-0.688    c-0.001,0-0.001,0-0.001,0l-4.895-10.063c-0.415-0.854-0.173-1.884,0.581-2.462c1.48-1.136,2.872-2.338,4.139-3.573    c8.751-8.534,13.57-19.905,13.57-32.018c0-12.257-4.918-23.804-13.847-32.512c-14.259-13.906-35.923-17.483-53.906-8.903    c-0.32,0.152-0.677,0.218-1.028,0.188c-1.112-0.094-2.101-0.141-3.02-0.144h-6.455c-0.158,0-0.316-0.019-0.47-0.056    l-51.136-12.362c-0.897-0.218-1.53-1.021-1.53-1.944V89.308l-4.822-10.19l-36.968,22.906v10.353l-0.104,51.578    c0.026,6.275,2.186,12.2,6.242,17.123c0.215,0.261,0.36,0.571,0.423,0.902l8.499,45.172c0.109,0.585-0.047,1.188-0.427,1.646    c-0.38,0.459-0.944,0.724-1.539,0.724h-7.811c-5.102,0-9.252,4.191-9.252,9.343v5.115c0,0.812,0.647,1.472,1.444,1.472h23.592    c1.938,0,3.75-0.772,5.103-2.174c1.373-1.424,2.09-3.301,2.018-5.286l-1.604-44.462c-0.02-0.544,0.184-1.072,0.563-1.464    c0.379-0.391,0.924-0.6,1.444-0.608l33.417,0.13c0.092,0,0.185,0.007,0.275,0.021l43.243,6.19    c0.042,0.006,0.084,0.013,0.125,0.021l18.963,3.955c0.207,0.043,0.406,0.119,0.59,0.225l19.914,11.472    c0.494,0.285,0.844,0.767,0.96,1.325l0.452,2.169l1.917,10.187c0.109,0.585-0.047,1.188-0.427,1.646    c-0.38,0.459-0.944,0.724-1.539,0.724h-7.811c-5.102,0-9.252,4.191-9.252,9.343v5.115c0,0.733,0.546,1.354,1.27,1.444    C190.847,245.431,190.902,245.439,190.956,245.451z"/>
	</g>
	<g>
		<path class="st2" d="M96.097,28.35h0.038c-16.287-7.283-36.152-2.786-43.155-0.8c-0.828,0.183-1.634,0.434-2.419,0.739    c-0.106,0.036-0.179,0.061-0.179,0.061h0.035c-7.275,2.907-12.508,10.873-12.508,20.269v4.616c0,1.355-0.882,2.548-2.169,2.937    l-15.603,4.711h-0.002c-5.419,0-9.812,5.078-9.812,11.342V89.4c0,6.264,4.393,11.342,9.812,11.342h17.774h18.239    c1.569,0,2.84,1.282,2.84,2.863c0,0.017-0.005,0.033-0.005,0.051l40.394-8.144c7.482-0.161,13.501-6.313,13.501-13.893V51.755    C112.877,40.843,105.84,31.602,96.097,28.35z"/>
	</g>
	<g>
		<path class="st4" d="M24.009,71.615V63.95c0-1.454-0.523-2.773-1.363-3.824l-2.51,0.758h-0.002c-5.419,0-9.812,5.078-9.812,11.342    v5.521h7.604C21.286,77.747,24.009,75.001,24.009,71.615z"/>
	</g>
	<g>
		<path class="st0" d="M75.536,74.995c7.499,0,13.578-6.128,13.578-13.687V25.963C74.527,22.3,59,25.843,52.979,27.551    c-0.828,0.183-1.634,0.434-2.419,0.739c-0.106,0.036-0.179,0.061-0.179,0.061h0.035c-0.982,0.392-1.923,0.884-2.822,1.452    c-1.117,2.28-1.761,4.838-1.761,7.553v23.953c0,7.559,6.079,13.687,13.578,13.687H75.536z"/>
	</g>
	<g>
		<path class="st1" d="M54.427,57.818h-0.003c-2.519,0-4.561-2.042-4.561-4.561v-6.208c0-2.519,2.042-4.561,4.561-4.561h0.003    c2.519,0,4.561,2.042,4.561,4.561v6.208C58.987,55.776,56.945,57.818,54.427,57.818z"/>
	</g>
	<g>
		<path class="st1" d="M17.926,79.746h-7.604c-1.104,0-2-0.896-2-2v-5.521c0-7.239,5.132-13.15,11.502-13.337l2.244-0.678    c0.785-0.237,1.631,0.027,2.141,0.666c1.178,1.475,1.801,3.229,1.801,5.072v7.665C26.01,76.099,22.384,79.746,17.926,79.746z     M12.322,75.746h5.604c2.252,0,4.084-1.854,4.084-4.132v-7.665c0-0.554-0.112-1.042-0.276-1.458l-1.019,0.308    c-0.188,0.057-0.382,0.085-0.578,0.085c-4.309,0-7.814,4.19-7.814,9.342V75.746z"/>
	</g>
	<g>
		<path class="st1" d="M58.982,105.655c-0.458,0-0.906-0.157-1.267-0.452c-0.464-0.38-0.733-0.948-0.733-1.548    c0-0.033,0.001-0.069,0.003-0.106c-0.027-0.45-0.393-0.808-0.838-0.808H20.135c-6.514,0-11.813-5.985-11.813-13.342V72.226    c0-7.239,5.132-13.15,11.502-13.337l15.337-4.631c0.447-0.135,0.747-0.546,0.747-1.022v-4.616c0-9.842,5.418-18.652,13.512-22.022    c0.094-0.052,0.193-0.097,0.298-0.133l0.157-0.054c0.872-0.337,1.751-0.605,2.614-0.8c7.86-2.222,27.796-6.538,44.461,0.914    c0.01,0.005,0.02,0.009,0.029,0.014c10.716,3.694,17.897,13.795,17.897,25.217v29.863c0,8.519-6.835,15.606-15.274,15.888    l-40.225,8.11C59.246,105.643,59.114,105.655,58.982,105.655z M51.265,30.162c-0.035,0.016-0.07,0.031-0.106,0.046    c-6.729,2.688-11.25,10.087-11.25,18.411v4.616c0,2.254-1.443,4.204-3.591,4.853l-15.603,4.711    c-0.188,0.057-0.382,0.085-0.578,0.085c-4.309,0-7.814,4.19-7.814,9.342v17.174c0,5.151,3.505,9.342,7.813,9.342h36.013    c1.85,0,3.46,1.048,4.274,2.584l38.559-7.774c0.116-0.023,0.234-0.036,0.353-0.039c6.365-0.137,11.544-5.473,11.544-11.894V51.755    c0-9.787-6.194-18.43-15.413-21.507c-0.142-0.047-0.273-0.108-0.396-0.183c-15.458-6.777-34.182-2.677-41.542-0.591    c-0.038,0.011-0.077,0.021-0.115,0.029c-0.696,0.153-1.411,0.372-2.125,0.649C51.278,30.156,51.271,30.159,51.265,30.162z"/>
	</g>
	<g>
		<path class="st2" d="M92.475,54.744h-8.419c-4.706,0-8.521-3.815-8.521-8.521V11.957c0-1.882,1.526-3.408,3.408-3.408h1.602    c11.294,0,20.449,9.155,20.449,20.449v17.225C100.996,50.929,97.181,54.744,92.475,54.744z"/>
	</g>
	<g>
		<path class="st1" d="M92.476,56.744h-8.419c-5.801,0-10.521-4.72-10.521-10.521V11.957c0-2.982,2.426-5.408,5.408-5.408h1.603    c12.379,0,22.449,10.07,22.449,22.449v17.226C102.996,52.024,98.276,56.744,92.476,56.744z M78.944,10.549    c-0.776,0-1.408,0.632-1.408,1.408v34.267c0,3.596,2.925,6.521,6.521,6.521h8.419c3.596,0,6.521-2.925,6.521-6.521V28.998    c0-10.173-8.276-18.449-18.449-18.449H78.944z"/>
	</g>
	<g>
		<path class="st5" d="M66.554,121.101h12.037c2.044,0,4.05-0.561,5.797-1.622l28.489-17.294l14.325,2.923l-37.926,24.571    c-1.809,1.172-3.919,1.796-6.075,1.796H66.554V121.101z"/>
	</g>
	<g>
		<path class="st5" d="M88.1,193.719l21.005-18.108c1.403-1.209,2.483-2.748,3.143-4.479l22.136-58.012l10.374,2.394l-21.249,60.711    c-0.715,2.042-2.007,3.833-3.72,5.155l-15.729,12.136L88.1,193.719z"/>
	</g>
	<g>
		<path class="st1" d="M83.201,133.476H66.554c-1.104,0-2-0.896-2-2v-10.374c0-1.104,0.896-2,2-2h12.037    c1.678,0,3.324-0.461,4.759-1.332l28.489-17.294c0.432-0.262,0.946-0.35,1.438-0.25l14.325,2.922    c0.796,0.163,1.415,0.79,1.565,1.589c0.151,0.798-0.195,1.608-0.877,2.05l-37.927,24.572    C88.225,132.743,85.749,133.476,83.201,133.476z M68.554,129.476h14.647c1.773,0,3.498-0.51,4.986-1.475l33.821-21.912    l-8.764-1.787l-27.819,16.888c-2.062,1.251-4.425,1.912-6.835,1.912H68.554V129.476z"/>
	</g>
	<g>
		<path class="st1" d="M88.1,195.719c-0.83,0-1.575-0.514-1.87-1.292c-0.298-0.786-0.072-1.674,0.564-2.223l21.005-18.107    c1.148-0.989,2.04-2.261,2.581-3.677l22.136-58.012c0.356-0.934,1.343-1.455,2.318-1.236l10.374,2.395    c0.554,0.128,1.027,0.486,1.302,0.984s0.323,1.089,0.136,1.626l-21.249,60.71c-0.844,2.412-2.359,4.514-4.386,6.077L105.281,195.1    c-0.343,0.266-0.763,0.411-1.196,0.417l-15.96,0.202C88.116,195.719,88.108,195.719,88.1,195.719z M135.631,115.462    l-21.515,56.384c-0.775,2.034-2.058,3.86-3.706,5.281l-16.847,14.522l9.803-0.124l15.201-11.728    c1.41-1.089,2.466-2.553,3.054-4.232l20.512-58.604L135.631,115.462z"/>
	</g>
	<g>
		<path class="st5" d="M58.096,115.914l13.971-0.323c1.791-0.041,3.266,1.399,3.266,3.191v22.035c0,0.671-0.211,1.325-0.604,1.869    l-8.814,12.204c-0.6,0.831-1.563,1.323-2.588,1.323H58L58.096,115.914z"/>
	</g>
	<g>
		<path class="st5" d="M104.06,99.555v6.189c0,1.055,0.716,1.975,1.738,2.235l44.482,11.307c0.554,0.141,1.142,0.071,1.647-0.197    l12.78-6.766h-9.576L104.06,99.555z"/>
	</g>
	<g>
		<path class="st1" d="M63.326,158.213h-5.327c-0.531,0-1.041-0.211-1.416-0.588c-0.375-0.376-0.585-0.886-0.584-1.417l0.097-40.299    c0.003-1.085,0.869-1.97,1.954-1.994l13.971-0.323c1.36-0.041,2.738,0.49,3.747,1.476s1.564,2.305,1.564,3.715v22.035    c0,1.097-0.34,2.147-0.982,3.039l-8.814,12.204C66.562,157.408,64.988,158.213,63.326,158.213z M60.004,154.213h3.322    c0.382,0,0.743-0.185,0.967-0.495l8.813-12.203c0.147-0.205,0.226-0.446,0.226-0.697v-22.035c0-0.324-0.128-0.627-0.359-0.854    c-0.23-0.225-0.506-0.335-0.859-0.339l-12.022,0.278L60.004,154.213z"/>
	</g>
	<g>
		<path class="st1" d="M150.85,121.357c-0.355,0-0.711-0.044-1.061-0.133l-44.484-11.307c-1.91-0.485-3.245-2.202-3.245-4.174    v-6.189c0-0.616,0.284-1.197,0.77-1.576s1.12-0.512,1.716-0.364l50.833,12.709h9.33c0.919,0,1.72,0.626,1.941,1.518    c0.221,0.893-0.193,1.82-1.006,2.25l-12.78,6.766C152.236,121.188,151.546,121.357,150.85,121.357z M106.06,102.116v3.628    c0,0.141,0.095,0.263,0.23,0.297l44.483,11.307c0.072,0.017,0.151,0.009,0.219-0.026l5.663-2.998h-1.523    c-0.163,0-0.326-0.021-0.485-0.06L106.06,102.116z"/>
	</g>
	<g>
		<path class="st5" d="M138.613,116.241l-21.712-5.275l2.979-12.263c0.543-2.237,2.798-3.61,5.035-3.067l13.611,3.307    c2.237,0.543,3.61,2.798,3.067,5.035L138.613,116.241z"/>
	</g>
	<g>
		<path class="st1" d="M138.613,118.241c-0.158,0-0.316-0.019-0.473-0.057l-21.713-5.275c-0.515-0.125-0.96-0.45-1.235-0.903    c-0.276-0.453-0.36-0.997-0.235-1.513l2.979-12.263c0.802-3.305,4.142-5.339,7.449-4.538l13.611,3.307    c1.602,0.39,2.956,1.379,3.813,2.785c0.857,1.408,1.115,3.064,0.726,4.666l-2.979,12.263c-0.125,0.516-0.45,0.96-0.903,1.236    C139.338,118.142,138.978,118.241,138.613,118.241z M119.316,109.494l17.825,4.331l2.507-10.319    c0.137-0.563,0.046-1.146-0.255-1.641c-0.302-0.495-0.777-0.843-1.341-0.979l-13.61-3.307c-0.562-0.136-1.146-0.045-1.641,0.256    c-0.494,0.301-0.842,0.777-0.979,1.34L119.316,109.494z"/>
	</g>
</g>
</svg>
