<?xml version="1.0" encoding="utf-8"?>
<!-- Generator: Adobe Illustrator 22.1.0, SVG Export Plug-In . SVG Version: 6.00 Build 0)  -->
<svg xmlns="http://www.w3.org/2000/svg" xmlns:xlink="http://www.w3.org/1999/xlink" version="1.1" id="Layer_1" x="0px" y="0px" viewBox="0 0 256 256" style="enable-background:new 0 0 256 256;" xml:space="preserve" width="512" height="512">
<style type="text/css">
	.st0{fill:#F9CFCF;}
	.st1{fill:#3762CC;}
	.st2{fill:#F9A7A7;}
	.st3{fill:#E0EBFC;}
	.st4{fill:#4671C6;}
	.st5{fill:#6BDDDD;}
	.st6{fill:#FFEA92;}
	.st7{fill:#A4C9FF;}
	.st8{fill:#EAA97D;}
	.st9{fill:#B9BEFC;}
</style>
<g>
	<g>
		<g>
			<path class="st7" d="M77.74,163l-47.604,82.452c-0.469,0.812-0.191,1.851,0.622,2.32l0,0c0.258,0.149,0.551,0.228,0.849,0.228     h19.171c0.607,0,1.168-0.324,1.471-0.849L100.834,163H77.74z"/>
		</g>
		<g>
			<path class="st7" d="M155.061,163l48.584,84.151c0.303,0.526,0.864,0.849,1.471,0.849h19.171c0.298,0,0.591-0.078,0.849-0.228v0     c0.812-0.469,1.091-1.508,0.622-2.32L178.155,163H155.061z"/>
		</g>
	</g>
	<g>
		<g>
			<path class="st1" d="M50.779,250H31.608c-0.648,0-1.289-0.171-1.85-0.496c-1.766-1.02-2.373-3.286-1.354-5.052L76.008,162     c0.357-0.619,1.018-1,1.732-1h23.094c0.715,0,1.375,0.381,1.732,1c0.356,0.619,0.356,1.381,0,2l-48.584,84.151     C53.322,249.292,52.096,250,50.779,250z M32.13,246h18.476l46.765-81H78.895L32.13,246z"/>
		</g>
		<g>
			<path class="st1" d="M224.287,250h-19.171c-1.316,0-2.543-0.708-3.202-1.848L153.328,164c-0.356-0.619-0.356-1.381,0-2     c0.357-0.619,1.018-1,1.732-1h23.095c0.715,0,1.375,0.381,1.732,1l47.604,82.452c1.019,1.767,0.411,4.033-1.354,5.052     C225.576,249.829,224.936,250,224.287,250z M205.29,246h18.476l-46.765-81h-18.477L205.29,246z"/>
		</g>
	</g>
	<g>
		<path class="st7" d="M137.59,8L17.948,8h-6c-2.209,0-4,1.791-4,4v6v141c0,2.209,1.791,4,4,4h2c2.209,0,4-1.791,4-4V20    c0-1.105,0.895-2,2-2h117c3.798,0,6.606-4.234,3.964-8.239C140.18,8.652,138.919,8,137.59,8z"/>
	</g>
	<g>
		<path class="st1" d="M13.947,165h-2c-3.309,0-6-2.691-6-6V12c0-3.309,2.691-6,6-6H137.59c2.027,0,3.893,0.995,4.991,2.66    c1.604,2.432,1.804,5.293,0.533,7.654c-1.224,2.273-3.587,3.686-6.167,3.686h-117v139C19.947,162.309,17.256,165,13.947,165z     M11.947,10c-1.103,0-2,0.897-2,2v147c0,1.103,0.897,2,2,2h2c1.103,0,2-0.897,2-2V20c0-2.206,1.794-4,4-4h117    c1.106,0,2.119-0.606,2.645-1.582c0.335-0.622,0.735-1.912-0.35-3.556C138.891,10.331,138.258,10,137.59,10H11.947z"/>
	</g>
	<g>
		<rect x="65.948" y="196" class="st5" width="124" height="18"/>
	</g>
	<g>
		<path class="st5" d="M243.948,175h-232c-2.209,0-4-1.791-4-4v-16c0-2.209,1.791-4,4-4h232c2.209,0,4,1.791,4,4v16    C247.948,173.209,246.157,175,243.948,175z"/>
	</g>
	<g>
		<path class="st1" d="M127.947,50c-2.209,0-4-1.791-4-4V8c0-2.209,1.791-4,4-4s4,1.791,4,4v38    C131.947,48.209,130.156,50,127.947,50z"/>
	</g>
	<g>
		<path class="st0" d="M177.131,82.542c0.001-0.099,0.005-0.194,0.005-0.293c0.001-0.281-0.026-0.554-0.074-0.82    c0-0.001,0-0.007,0-0.007l-0.001,0.003c-0.037-0.209-0.086-0.413-0.149-0.61c-0.001-0.007-0.003-0.019-0.003-0.019l-0.002,0.004    c-0.543-1.677-2.005-2.889-3.734-2.904c-2.188-0.014-3.984,1.901-3.993,4.287c0,0.075-0.002,0.147-0.003,0.221    c-0.029,0.34-0.408,4.774-0.809,7.323c-7.541,39.089-42.175,41.338-42.175,41.338l0.128,5.621    c-0.105,0.417-0.155,0.859-0.137,1.315c0.015,0.404,0.084,0.79,0.194,1.157l0.21,9.184c0,0,45.679-4.583,50.236-54.291    l0.004,0.004c0.001-0.031,0.003-0.065,0.004-0.097c0.209-2.304,0.334-4.701,0.357-7.203l0.007,0.003    C177.308,85.148,177.233,83.64,177.131,82.542z"/>
	</g>
	<g>
		<path class="st0" d="M177.131,82.542c0.001-0.099,0.005-0.194,0.005-0.293c0.001-0.281-0.026-0.554-0.074-0.82    c0-0.001,0-0.007,0-0.007l-0.001,0.003c-0.037-0.209-0.086-0.413-0.149-0.61c-0.001-0.007-0.003-0.019-0.003-0.019l-0.002,0.004    c-0.543-1.677-2.005-2.889-3.734-2.904c-2.188-0.014-3.984,1.901-3.993,4.287c0,0.075-0.002,0.147-0.003,0.221    c-0.029,0.34-0.408,4.774-0.809,7.323c-7.541,39.089-42.175,41.338-42.175,41.338l0.128,5.621    c-0.105,0.417-0.155,0.859-0.137,1.315c0.015,0.404,0.084,0.79,0.194,1.157l0.21,9.184c0,0,45.679-4.583,50.236-54.291    l0.004,0.004c0.001-0.031,0.003-0.065,0.004-0.097c0.209-2.304,0.334-4.701,0.357-7.203l0.007,0.003    C177.308,85.148,177.233,83.64,177.131,82.542z"/>
	</g>
	<g>
		<path class="st1" d="M126.589,150.343c-0.485,0-0.957-0.177-1.325-0.501c-0.417-0.369-0.661-0.896-0.674-1.453l-0.205-8.939    c-0.113-0.451-0.18-0.911-0.197-1.37c-0.021-0.536,0.022-1.071,0.131-1.594l-0.123-5.374c-0.025-1.072,0.8-1.972,1.869-2.042    c1.35-0.092,33.194-2.677,40.341-39.721c0.269-1.715,0.577-4.765,0.774-7.045l0.001-0.05c0.007-1.804,0.693-3.472,1.886-4.653    c1.121-1.109,2.604-1.714,4.12-1.705c2.505,0.021,4.734,1.693,5.587,4.175c0.03,0.078,0.056,0.159,0.076,0.242    c0.055,0.169,0.114,0.411,0.163,0.664c0.013,0.057,0.023,0.115,0.031,0.173c0.063,0.372,0.094,0.744,0.093,1.105l-0.004,0.209    c0.137,1.535,0.156,3.026,0.059,4.434c-0.001,0.016-0.002,0.031-0.004,0.047c-0.027,2.407-0.148,4.826-0.362,7.193    c-0.003,0.078-0.01,0.154-0.021,0.23c-2.466,26.414-16.451,40.232-27.761,47.174c-12.239,7.512-23.771,8.742-24.256,8.791    C126.722,150.34,126.655,150.343,126.589,150.343z M128.235,132.82l0.087,3.821c0.005,0.181-0.016,0.361-0.06,0.536    c-0.063,0.244-0.088,0.496-0.079,0.748c0.009,0.22,0.047,0.443,0.111,0.662c0.052,0.171,0.079,0.348,0.083,0.526l0.158,6.904    c3.792-0.706,12.076-2.731,20.552-7.967c15.26-9.425,23.922-24.29,25.746-44.18c0.001-0.01,0.002-0.021,0.003-0.031    c0,0,0,0,0-0.001c0.213-2.375,0.33-4.745,0.353-7.1c0.001-0.095,0.009-0.188,0.022-0.28c0.09-1.465,0.012-2.831-0.071-3.732    c-0.006-0.061-0.009-0.123-0.009-0.184l0.005-0.313c0.001-0.128-0.012-0.27-0.038-0.423c-0.002-0.01-0.004-0.021-0.006-0.031    c-0.021-0.118-0.048-0.233-0.082-0.345c-0.002-0.005-0.004-0.01-0.005-0.015c-0.292-0.902-1.035-1.513-1.849-1.52    c-0.003,0-0.007,0-0.011,0c-0.458,0-0.908,0.194-1.265,0.547c-0.443,0.438-0.698,1.075-0.7,1.746l-0.002,0.144    c0,0.058-0.004,0.186-0.009,0.243c-0.1,1.163-0.45,5.073-0.826,7.462C163.629,124.854,135.813,131.617,128.235,132.82z"/>
	</g>
	<g>
		<path class="st2" d="M100.783,105.639L100.783,105.639c-8.351,0-15.12,6.769-15.12,15.12v12.96c0,1.299,0.148,2.563,0.42,3.78    c-4.318,1.414-7.44,5.47-7.44,10.26c0,1.789,1.451,3.24,3.24,3.24h21.06h13.5v-14.04v-15.66    C116.443,112.65,109.432,105.639,100.783,105.639z"/>
	</g>
	<g>
		<path class="st1" d="M116.443,152.999H81.883c-2.889,0-5.239-2.351-5.239-5.24c0-4.955,2.827-9.383,7.188-11.503    c-0.112-0.845-0.169-1.693-0.169-2.537v-12.96c0-9.44,7.68-17.12,17.12-17.12c9.738,0,17.66,7.922,17.66,17.66v29.7    C118.443,152.103,117.548,152.999,116.443,152.999z M100.783,107.639c-7.234,0-13.12,5.886-13.12,13.12v12.96    c0,1.113,0.125,2.238,0.372,3.344c0.224,1.005-0.352,2.016-1.33,2.336c-3.626,1.187-6.062,4.546-6.062,8.359    c0,0.684,0.556,1.24,1.239,1.24h32.561v-27.7C114.443,113.767,108.315,107.639,100.783,107.639z"/>
	</g>
	<g>
		<path class="st2" d="M168.404,137.499c0.272-1.217,0.42-2.481,0.42-3.78v-12.96c0-8.351-6.769-15.12-15.12-15.12h0    c-8.649,0-15.66,7.011-15.66,15.66v15.66v14.04h13.5h21.06c1.789,0,3.24-1.451,3.24-3.24    C175.843,142.968,172.722,138.912,168.404,137.499z"/>
	</g>
	<g>
		<path class="st1" d="M172.604,152.999h-34.561c-1.104,0-2-0.896-2-2v-29.7c0-9.738,7.922-17.66,17.66-17.66    c9.44,0,17.12,7.68,17.12,17.12v12.96c0,0.844-0.057,1.692-0.169,2.537c4.361,2.12,7.188,6.548,7.188,11.503    C177.843,150.648,175.492,152.999,172.604,152.999z M140.043,148.999h32.561c0.684,0,1.239-0.556,1.239-1.24    c0-3.813-2.436-7.173-6.062-8.359c-0.979-0.32-1.554-1.332-1.33-2.336c0.247-1.106,0.372-2.231,0.372-3.344v-12.96    c0-7.234-5.886-13.12-13.12-13.12c-7.532,0-13.66,6.128-13.66,13.66V148.999z"/>
	</g>
	<g>
		<path class="st2" d="M159.278,118.969c0.603,3.696,0.906,7.429,0.906,11.166v0.166c0,11.431-10.025,20.697-22.392,20.697h-21.096    c-12.367,0-22.392-9.267-22.392-20.697v0c0-3.849,0.312-7.692,0.932-11.497v0l5.67-34.765h52.675l5.653,34.658L159.278,118.969z"/>
	</g>
	<g>
		<path class="st2" d="M103.938,105.727v6.449c0,12.356,1.081,24.688,3.229,36.855v0c0.201,1.139,1.191,1.969,2.347,1.969    l13.532-0.06l0.017,0c0.819-0.007,1.479-0.673,1.479-1.492v-29.769c0-1.193,0.967-2.16,2.16-2.16c0.019,0,0.037,0.005,0.057,0.006    c0.019-0.001,0.037-0.006,0.057-0.006c0.245,0,0.476,0.059,0.684,0.156c0.797,0.318,1.362,1.093,1.362,2.004l0,29.633    c0,0.626,0.355,1.219,0.935,1.454c0.243,0.098,0.508,0.153,0.786,0.155l14.387,0.08c1.156,0,2.146-0.83,2.347-1.969l0,0    c2.149-12.167,3.229-24.499,3.229-36.855v-6.449H103.938z"/>
	</g>
	<g>
		<path class="st1" d="M137.791,152.999h-21.096c-13.449,0-24.392-10.182-24.392-22.697c0-3.943,0.322-7.919,0.958-11.819    l5.671-34.765c0.157-0.968,0.993-1.678,1.974-1.678h52.674c0.98,0,1.816,0.71,1.974,1.678l5.698,34.932    c0.618,3.789,0.932,7.653,0.932,11.486v0.167C162.184,142.816,151.241,152.999,137.791,152.999z M102.606,86.039l-5.397,33.087    c-0.601,3.688-0.905,7.448-0.905,11.176c0,10.31,9.147,18.697,20.392,18.697h21.096c11.244,0,20.393-8.388,20.393-18.697v-0.167    c0-3.619-0.296-7.268-0.88-10.844c0-0.001-0.001-0.002-0.001-0.002l-5.423-33.25H102.606z"/>
	</g>
	<g>
		<path class="st2" d="M159.96,23.487c1.01,3.468,2.141,11.782-4.479,23.726l-20.687-17.359c10.613-8.593,18.997-8.923,22.588-8.531    C158.604,21.457,159.617,22.307,159.96,23.487z"/>
	</g>
	<g>
		<path class="st2" d="M94.526,23.487c-1.01,3.468-2.141,11.782,4.479,23.726l20.687-17.359    c-10.613-8.593-18.997-8.923-22.588-8.531C95.883,21.457,94.87,22.307,94.526,23.487z"/>
	</g>
	<g>
		<path class="st1" d="M155.481,49.213c-0.467,0-0.923-0.163-1.285-0.468l-20.688-17.358c-0.458-0.384-0.72-0.953-0.715-1.55    s0.277-1.161,0.741-1.537c10.979-8.889,19.796-9.429,24.063-8.965c2.032,0.223,3.713,1.633,4.282,3.594    c1.202,4.129,2.195,12.9-4.65,25.253c-0.289,0.522-0.797,0.888-1.385,0.997C155.725,49.202,155.603,49.213,155.481,49.213z     M137.983,29.92l16.88,14.163c5.086-10.324,3.951-17.375,3.177-20.037c0,0-0.001-0.001-0.001-0.001    c-0.116-0.4-0.459-0.688-0.875-0.733C154.411,23.007,147.268,23.119,137.983,29.92z"/>
	</g>
	<g>
		<path class="st1" d="M99.005,49.213c-0.121,0-0.243-0.011-0.364-0.034c-0.588-0.109-1.096-0.475-1.385-0.997    c-6.847-12.354-5.852-21.125-4.649-25.254l0,0c0.57-1.96,2.251-3.37,4.28-3.593c4.272-0.467,13.087,0.077,24.064,8.965    c0.464,0.375,0.736,0.939,0.741,1.537s-0.257,1.166-0.715,1.55L100.29,48.746C99.928,49.05,99.472,49.213,99.005,49.213z     M96.446,24.046c-0.774,2.662-1.909,9.713,3.177,20.037l16.88-14.163c-9.284-6.802-16.425-6.913-19.182-6.608    C96.907,23.357,96.563,23.646,96.446,24.046L96.446,24.046z"/>
	</g>
	<g>
		<path class="st0" d="M97.543,64.547v-10.26c0-13.719,11.121-24.84,24.84-24.84h9.72c13.719,0,24.84,11.121,24.84,24.84v10.26    c0,4.474-3.626,8.1-8.1,8.1h-43.2C101.17,72.647,97.543,69.02,97.543,64.547z"/>
	</g>
	<g>
		<path class="st2" d="M114.283,64.599c4.772,0,8.64-3.868,8.64-8.64v-26.46h-2.075c-13.003,0.794-23.305,11.585-23.305,24.788    v10.26c0,0.018,0.003,0.034,0.003,0.052H114.283z"/>
	</g>
	<g>
		<path class="st2" d="M133.639,29.499h-2.075v26.46c0,4.772,3.868,8.64,8.64,8.64h16.737c0-0.018,0.003-0.034,0.003-0.052v-10.26    C156.943,41.084,146.642,30.292,133.639,29.499z"/>
	</g>
	<g>
		<path class="st0" d="M154.138,40.864c2.627-6.226,2.805-10.931,2.456-13.857c-0.125-1.047-1.041-1.815-2.093-1.756    c-2.942,0.165-7.545,1.157-13.22,4.825L154.138,40.864z"/>
	</g>
	<g>
		<path class="st0" d="M100.348,40.864c-2.627-6.226-2.805-10.931-2.456-13.857c0.125-1.047,1.041-1.815,2.093-1.756    c2.942,0.165,7.545,1.157,13.22,4.825L100.348,40.864z"/>
	</g>
	<g>
		<g>
			<path class="st1" d="M112.342,60.488h-0.004c-1.645,0-2.979-1.334-2.979-2.979v-3.574c0-1.645,1.334-2.979,2.979-2.979h0.004     c1.645,0,2.979,1.334,2.979,2.979v3.574C115.321,59.154,113.987,60.488,112.342,60.488z"/>
		</g>
		<g>
			<path class="st1" d="M142.148,60.488h-0.004c-1.645,0-2.979-1.334-2.979-2.979v-3.574c0-1.645,1.334-2.979,2.979-2.979h0.004     c1.645,0,2.979,1.334,2.979,2.979v3.574C145.127,59.154,143.793,60.488,142.148,60.488z"/>
		</g>
	</g>
	<g>
		<path class="st1" d="M148.843,74.647h-43.199c-5.569,0-10.101-4.531-10.101-10.1v-10.26c0-14.799,12.04-26.84,26.84-26.84h9.721    c14.8,0,26.84,12.041,26.84,26.84v10.26C158.943,70.116,154.412,74.647,148.843,74.647z M122.383,31.447    c-12.594,0-22.84,10.246-22.84,22.84v10.26c0,3.364,2.736,6.1,6.101,6.1h43.199c3.364,0,6.101-2.736,6.101-6.1v-10.26    c0-12.594-10.246-22.84-22.84-22.84H122.383z"/>
	</g>
	<g>
		<path class="st0" d="M91.603,78.499v-0.372c0-9.441,7.653-17.094,17.094-17.094h37.092c9.441,0,17.094,7.653,17.094,17.094v0.372    c0,9.441-7.653,17.094-17.094,17.094h-37.092C99.257,95.593,91.603,87.94,91.603,78.499z"/>
	</g>
	<g>
		<path class="st3" d="M134.803,95.551h-15.12c-4.772,0-8.64-3.868-8.64-8.64v-8.64c0-4.772,3.868-8.64,8.64-8.64h15.12    c4.772,0,8.64,3.868,8.64,8.64v8.64C143.443,91.683,139.575,95.551,134.803,95.551z"/>
	</g>
	<g>
		<path class="st1" d="M133.261,82.529c-2.276,0-4.399-0.691-6.018-1.911c-1.618,1.22-3.74,1.911-6.017,1.911    c-4.932,0-8.943-3.32-8.943-7.4c0-1.104,0.896-2,2-2s2,0.896,2,2c0,1.843,2.264,3.4,4.943,3.4c1.852,0,3.54-0.729,4.408-1.903    c0.756-1.02,2.461-1.02,3.217,0c0.868,1.174,2.558,1.903,4.409,1.903c2.679,0,4.942-1.557,4.942-3.4c0-1.104,0.896-2,2-2    s2,0.896,2,2C142.203,79.209,138.191,82.529,133.261,82.529z"/>
	</g>
	<g>
		<path class="st4" d="M129.982,73.411h-5.478c-2.066,0-3.741-1.675-3.741-3.741v-1.325c0-1.377,1.117-2.494,2.494-2.494h7.972    c1.377,0,2.494,1.117,2.494,2.494v1.325C133.723,71.736,132.048,73.411,129.982,73.411z"/>
	</g>
	<g>
		<path class="st1" d="M145.789,97.593h-37.092c-10.528,0-19.094-8.565-19.094-19.094v-0.372c0-10.529,8.565-19.094,19.094-19.094    h37.092c10.528,0,19.094,8.565,19.094,19.094v0.372C164.883,89.027,156.317,97.593,145.789,97.593z M108.697,63.033    c-8.322,0-15.094,6.771-15.094,15.094v0.372c0,8.323,6.771,15.094,15.094,15.094h37.092c8.322,0,15.094-6.771,15.094-15.094    v-0.372c0-8.323-6.771-15.094-15.094-15.094H108.697z"/>
	</g>
	<g>
		<g>
			<path class="st0" d="M128.863,141.279v8.033c0,0.626,0.355,1.219,0.935,1.454c0.243,0.098,0.508,0.153,0.786,0.155l14.151,0.079     h0.251c1.15-0.007,2.132-0.834,2.332-1.967l0,0c0.455-2.577,0.851-5.162,1.211-7.752H128.863z"/>
		</g>
		<g>
			<path class="st0" d="M123.046,150.94l0.017,0c0.819-0.007,1.479-0.673,1.479-1.492v-8.169h-18.586     c0.359,2.59,0.756,5.176,1.211,7.753v0c0.2,1.134,1.182,1.96,2.332,1.967h0.312L123.046,150.94z"/>
		</g>
	</g>
	<g>
		<path class="st1" d="M144.973,153l-14.398-0.08c-0.526-0.003-1.04-0.104-1.526-0.301c-1.326-0.535-2.185-1.833-2.185-3.307    v-29.633c0-0.102-0.093-0.142-0.104-0.146c-0.007-0.002-0.014-0.005-0.02-0.008c-0.024,0-0.047-0.001-0.071-0.002    c-0.072,0.016-0.126,0.08-0.126,0.156v29.769c0,1.91-1.554,3.476-3.463,3.492L109.523,153c-2.14,0-3.955-1.523-4.326-3.621    c-2.162-12.248-3.259-24.764-3.259-37.203v-6.449c0-1.104,0.896-2,2-2s2,0.896,2,2v6.449c0,12.206,1.076,24.489,3.198,36.507    c0.032,0.183,0.191,0.316,0.378,0.316l13.028-0.058v-29.264c0-2.294,1.866-4.16,4.16-4.16c0.033,0,0.075,0,0.113,0    c0.51,0,1.007,0.108,1.479,0.32c1.562,0.647,2.567,2.148,2.567,3.84v29.233l14.12,0.088c0.176,0,0.334-0.133,0.366-0.317    c2.122-12.018,3.198-24.301,3.198-36.507v-6.449c0-1.104,0.896-2,2-2s2,0.896,2,2v6.449c0,12.439-1.097,24.956-3.259,37.202    C148.918,151.477,147.104,153,144.973,153z"/>
	</g>
	<g>
		<path class="st7" d="M227.448,99.565l6.241-8.913L202.94,69.122c-4.676-3.274-11.122-2.138-14.396,2.538v0    c-0.172,0.246-0.113,0.585,0.134,0.758L227.448,99.565z"/>
	</g>
	<g>
		<path class="st4" d="M226.52,85.633l-6.241,8.913l6.585,4.611c-0.484,3.794,1.095,7.722,4.446,10.068    c4.813,3.37,11.446,2.2,14.817-2.613c3.37-4.813,2.2-11.446-2.613-14.817c-3.011-2.108-6.735-2.439-9.926-1.213L226.52,85.633z     M241.127,95.205c2.925,2.048,3.638,6.094,1.59,9.019c-2.048,2.925-6.094,3.638-9.019,1.59c-2.925-2.048-3.638-6.094-1.59-9.019    C234.156,93.871,238.202,93.157,241.127,95.205z"/>
	</g>
	<g>
		<path class="st3" d="M227.448,74.726l6.241,8.913l-30.749,21.531c-4.676,3.274-11.122,2.138-14.396-2.538v0    c-0.172-0.246-0.113-0.585,0.134-0.758L227.448,74.726z"/>
	</g>
	<g>
		<path class="st4" d="M231.311,65.066c-3.351,2.346-4.93,6.274-4.446,10.068l-6.717,4.703l6.241,8.913l7.2-5.042    c3.191,1.226,6.915,0.895,9.926-1.213c4.813-3.37,5.983-10.004,2.613-14.817C242.757,62.866,236.124,61.696,231.311,65.066z     M242.717,70.066c2.048,2.925,1.335,6.971-1.59,9.019c-2.925,2.048-6.971,1.335-9.019-1.59c-2.048-2.925-1.335-6.971,1.59-9.019    C236.624,66.428,240.669,67.142,242.717,70.066z"/>
	</g>
	<g>
		<circle class="st2" cx="218.548" cy="86.917" r="2.176"/>
	</g>
	<g>
		<path class="st7" d="M247.925,50.018v-2.432c0-1.007-0.817-1.824-1.824-1.824h-25.839c-1.007,0-1.824,0.817-1.824,1.824v2.432    c0,1.007,0.817,1.824,1.824,1.824h25.839C247.109,51.842,247.925,51.025,247.925,50.018z"/>
	</g>
	<g>
		<path class="st0" d="M192.448,64.087V52.45h-2.432v11.638c0,0.624,0.506,1.13,1.13,1.13h0.172    C191.942,65.217,192.448,64.711,192.448,64.087z"/>
	</g>
	<g>
		<path class="st0" d="M197.312,64.087V52.45h-2.432v11.638c0,0.624,0.506,1.13,1.13,1.13h0.172    C196.806,65.217,197.312,64.711,197.312,64.087z"/>
	</g>
	<g>
		<path class="st0" d="M202.176,64.087V52.45h-2.432v11.638c0,0.624,0.506,1.13,1.13,1.13h0.172    C201.67,65.217,202.176,64.711,202.176,64.087z"/>
	</g>
	<g>
		<path class="st0" d="M207.039,64.087V52.45h-2.432v11.638c0,0.624,0.506,1.13,1.13,1.13h0.172    C206.534,65.217,207.039,64.711,207.039,64.087z"/>
	</g>
	<g>
		<path class="st0" d="M211.903,64.087V52.45h-2.432v11.638c0,0.624,0.506,1.13,1.13,1.13h0.172    C211.397,65.217,211.903,64.711,211.903,64.087z"/>
	</g>
	<g>
		<path class="st0" d="M216.767,64.087V52.45h-2.432v11.638c0,0.624,0.506,1.13,1.13,1.13h0.172    C216.261,65.217,216.767,64.711,216.767,64.087z"/>
	</g>
	<g>
		<path class="st0" d="M221.631,64.087V52.45h-2.432v11.638c0,0.624,0.506,1.13,1.13,1.13h0.172    C221.125,65.217,221.631,64.711,221.631,64.087z"/>
	</g>
	<g>
		<path class="st0" d="M226.494,64.087V52.45h-2.432v11.638c0,0.624,0.506,1.13,1.13,1.13h0.172    C225.989,65.217,226.494,64.711,226.494,64.087z"/>
	</g>
	<g>
		<path class="st4" d="M227.558,52.83v-6.006c0-2.266-1.837-4.102-4.102-4.102h-31.162c-2.266,0-4.102,1.837-4.102,4.102v6.006    c0,1.133,0.918,2.051,2.051,2.051h35.264C226.64,54.882,227.558,53.963,227.558,52.83z"/>
	</g>
	<g>
		<path class="st1" d="M189.947,216h-124c-1.104,0-2-0.896-2-2v-18c0-1.104,0.896-2,2-2h124c1.104,0,2,0.896,2,2v18    C191.947,215.104,191.052,216,189.947,216z M67.947,212h120v-14h-120V212z"/>
	</g>
	<g>
		<path class="st1" d="M243.947,177h-232c-3.309,0-6-2.691-6-6v-16c0-3.309,2.691-6,6-6h232c3.309,0,6,2.691,6,6v16    C249.947,174.309,247.256,177,243.947,177z M11.947,153c-1.103,0-2,0.897-2,2v16c0,1.103,0.897,2,2,2h232c1.103,0,2-0.897,2-2v-16    c0-1.103-0.897-2-2-2H11.947z"/>
	</g>
</g>
</svg>
