<?xml version="1.0" encoding="utf-8"?>
<!-- Generator: Adobe Illustrator 23.0.2, SVG Export Plug-In . SVG Version: 6.00 Build 0)  -->
<svg version="1.1" id="Layer_1" xmlns="http://www.w3.org/2000/svg" xmlns:xlink="http://www.w3.org/1999/xlink" x="0px" y="0px"
	 viewBox="0 0 612 792" style="enable-background:new 0 0 612 792;" xml:space="preserve">
<style type="text/css">
	.st0{fill:none;stroke:#000000;stroke-width:0;stroke-linecap:round;stroke-linejoin:round;stroke-miterlimit:10;}
</style>
<g id="SPLINE">
	<path class="st0" d="M236.77,376.79c0.11,7.77,1.62,15.71,2.44,23.24c1.89,17.4,24.03,22.65,36.3,11.8
		c1.46-1.29,3.12-2.52,4.1-4.13c9.07-14.92,22.85-22.6,39.19-27.49c7.25-2.17,14.14-6.63,20.24-11.31
		c11.44-8.77,11.07-21.68-0.59-30.02c-19.64-14.05-41.82-20.47-65.87-19.93c-14.72,0.33-26.17,9.25-30.29,24.33
		c-2.21,8.08-3.54,16.35-4.92,24.6C236.89,370.82,236.73,373.79,236.77,376.79z"/>
</g>
<g id="HATCH">
	<path d="M236.77,376.79c0.11,7.77,1.62,15.71,2.44,23.24c1.89,17.4,24.03,22.65,36.3,11.8c1.46-1.29,3.12-2.52,4.1-4.13
		c9.07-14.92,22.85-22.6,39.19-27.49c7.25-2.17,14.14-6.63,20.24-11.31c11.44-8.77,11.07-21.68-0.59-30.02
		c-19.64-14.05-41.82-20.47-65.87-19.93c-14.72,0.33-26.17,9.25-30.29,24.33c-2.21,8.08-3.54,16.35-4.92,24.6
		C236.89,370.82,236.73,373.79,236.77,376.79z"/>
</g>
<g id="SPLINE_8_">
	<path class="st0" d="M251.31,298.79c10.93,0.09,19.02-6.61,20.14-16.39c1.99-17.28-2.78-32.49-16.73-43.74
		c-6.12-4.93-12.98-9.04-21.37-5.46c-9.06,3.86-12.92,11.88-12.71,20.76c0.42,17.84,7.08,32.98,23.32,42.35
		C246.74,297.91,250.15,298.42,251.31,298.79z"/>
</g>
<g id="HATCH_8_">
	<path d="M251.31,298.79c10.93,0.09,19.02-6.61,20.14-16.39c1.99-17.28-2.78-32.49-16.73-43.74c-6.12-4.93-12.98-9.04-21.37-5.46
		c-9.06,3.86-12.92,11.88-12.71,20.76c0.42,17.84,7.08,32.98,23.32,42.35C246.74,297.91,250.15,298.42,251.31,298.79z"/>
</g>
<g id="SPLINE_10_">
	<path class="st0" d="M188.37,271.64c-15.16-0.36-23.68,11.08-18.94,25.43c5.43,16.44,24.63,31.13,41.38,31.66
		c14.57,0.46,23.47-13.4,18.05-28.09C223.2,285.31,204.64,272.02,188.37,271.64z"/>
</g>
<g id="HATCH_10_">
	<path d="M188.37,271.64c-15.16-0.36-23.68,11.08-18.94,25.43c5.43,16.44,24.63,31.13,41.38,31.66
		c14.57,0.46,23.47-13.4,18.05-28.09C223.2,285.31,204.64,272.02,188.37,271.64z"/>
</g>
<g id="SPLINE_14_">
	<path class="st0" d="M195.02,340.35c-20.73,0.18-29.45,15-20.48,30.42c8.17,14.04,21.27,20.21,36.99,19.76
		c15.65-0.45,23.57-14.04,17.06-28.34C221.51,346.66,207.75,341.79,195.02,340.35z"/>
</g>
<g id="HATCH_14_">
	<path d="M195.02,340.35c-20.73,0.18-29.45,15-20.48,30.42c8.17,14.04,21.27,20.21,36.99,19.76c15.65-0.45,23.57-14.04,17.06-28.34
		C221.51,346.66,207.75,341.79,195.02,340.35z"/>
</g>
<g id="SPLINE_15_">
	<path class="st0" d="M283.64,277.86c1,11.79,2.8,23.24,13.62,30.69c9.74,6.71,19.99,4.97,26.88-4.57
		c8.92-12.36,6.84-36.51-4.14-47.17c-6.2-6.02-13.72-9.36-21.98-5.95c-9.35,3.85-12.72,12.62-14.33,22.01
		C283.4,274.48,283.64,276.19,283.64,277.86z"/>
</g>
<g id="HATCH_15_">
	<path d="M283.64,277.86c1,11.79,2.8,23.24,13.62,30.69c9.74,6.71,19.99,4.97,26.88-4.57c8.92-12.36,6.84-36.51-4.14-47.17
		c-6.2-6.02-13.72-9.36-21.98-5.95c-9.35,3.85-12.72,12.62-14.33,22.01C283.4,274.48,283.64,276.19,283.64,277.86z"/>
</g>
</svg>
